<svg id="Layer_1" xmlns="http://www.w3.org/2000/svg" viewBox="0 0 300 300"><style>.st0{fill:#81c8db}.st1{fill:#004a79}.st2{fill:#ec7037}.st3{clip-path:url(#SVGID_2_);fill:#f1c128}.st4{fill:#208c87}.st5{fill:#ff642e}.st6{fill:#ff842e}.st7{fill:#e54c14}.st8{fill:url(#SVGID_3_)}.st9{fill:#00a388}.st10{fill:#028c7e}.st11{fill:url(#SVGID_4_)}.st12{fill:#fff}.st13{fill:#f0f3f3}.st14{fill:url(#SVGID_5_)}.st15{fill:#ff6138}.st16{fill:#183242}.st17{fill:#16afbe}.st18{fill:#283c51}.st19{fill:#dc3200}.st20{fill:#f03c00}.st21{fill:#ffd200}.st22{fill:#ffc800}.st23{fill:#ffdc00}.st24{fill:#f2e89c}.st25{fill:#ffd88a}.st26,.st27,.st28,.st29,.st30{fill-rule:evenodd;clip-rule:evenodd;fill:#f0c500}.st27,.st28,.st29,.st30{fill:#ffd88a}.st28,.st29,.st30{fill:#fff}.st29,.st30{fill:#a7dae9}.st30{fill:#16afbe}.st31{fill:#f0c500}.st32,.st33,.st34{clip-path:url(#SVGID_7_);fill:#80c7da}.st33,.st34{clip-path:url(#SVGID_9_)}.st34{clip-path:url(#SVGID_11_)}.st35{opacity:.6}.st36,.st37,.st38{clip-path:url(#SVGID_13_);fill:#004a79}.st37,.st38{clip-path:url(#SVGID_15_)}.st38{clip-path:url(#SVGID_17_)}.st39,.st40,.st41{clip-path:url(#SVGID_19_);fill:#f1c128}.st40,.st41{clip-path:url(#SVGID_21_)}.st41{clip-path:url(#SVGID_23_)}.st42,.st43,.st44{clip-path:url(#SVGID_25_);fill:#ec7037}.st43,.st44{clip-path:url(#SVGID_27_)}.st44{clip-path:url(#SVGID_29_)}.st45{fill:#1398a7}.st46{fill:#ebf7fd}.st47{fill:#fbbe13}.st48{fill:#f2d961}.st49{opacity:8e-2;fill:url(#SVGID_30_)}.st50{fill:#f27446}.st51{opacity:8e-2;fill:#ff642e}.st52{fill:#d3d4d6}.st53{fill:#d0d2d3}.st54{fill:#e6e7e8}.st55{fill:#999}.st56{fill:#aeb0b3}.st57,.st58{fill:none;stroke:#87898b;stroke-width:4.9495}.st58{stroke-width:1.0999}.st59{opacity:8e-2;fill:url(#SVGID_31_)}.st60{fill:none;stroke:#dc543d;stroke-width:3.0686;stroke-linecap:round;stroke-linejoin:round}</style><switch><g><path class="st0" d="M150 300c82.8 0 150-67.2 150-150S232.8 0 150 0 0 67.2 0 150s67.2 150 150 150"/><path class="st1" d="M240.7 123.3c0 1.5-1.2 2.7-2.7 2.7H60.6c-1.5 0-2.7-1.2-2.7-2.7V92.9c0-1.5 1.2-2.7 2.7-2.7H238c1.5 0 2.7 1.2 2.7 2.7v30.4zM230.3 126h-162v106.5c0 2.9 2.3 5.2 5.2 5.2h151.6c2.9 0 5.2-2.3 5.2-5.2V126z"/><path class="st18" d="M68.3 126h161.9v7.7H68.3z"/><path class="st19" d="M139 143.1c-1.8-.3-3.5-.5-5.1-.5-14.2 0-17.5 13.6-17.5 13.7l-1.5 6.6-1.5-6.6c-.1-.5-3.3-13.2-17.4-13.2-1.7 0-3.4.2-5.3.5-7.6 1.5-13.2 10.6-11.9 19.6 2.3 16 30.5 38.3 36 42.5 5.5-4.2 33.7-26.6 36-42.5 1.4-9.1-4.3-18.7-11.8-20.1z"/><path class="st20" d="M139 143.1c-1.8-.3-3.5-.5-5.1-.5-14.2 0-17.5 13.6-17.5 13.7l-1.5 6.6v-.1 42.9c5.5-4.2 33.7-26.6 36-42.5 1.3-9.1-4.4-18.7-11.9-20.1z"/><g id="K7z1rV_1_"><path class="st1" d="M133.4 42.9h-1.3c1.2.6 2.4 1 3.5 1.6 3.5 1.9 5.8 5.1 7.6 8.6 3.6 7 5.4 14.6 6.7 22.3.4 2.4.7 4.8 1.1 7.2.3-.5.4-.9.6-1.4 2-5.7 3.7-11.5 5.9-17.1 2-5.1 4.9-9.8 8.9-13.6 6-5.7 14.3-6.2 20-.7 3.8 3.7 7.4 7.7 10.7 11.9 3.9 4.9 3.7 11.4-.4 16-1.4 1.6-3.1 3-4.8 4.2-6.2 4.1-13.2 6.1-20.4 7.4-2.3.4-4.6.7-7 1.1h-22.2c-.2-.1-.5-.2-.7-.3-8.6-1.7-16.8-4.6-24.2-9.2-4.5-2.8-8.6-6.2-11-11.1-2.8-5.9-2.6-12.7 4-17.2 2.2-1.5 4.3-3.2 6.5-4.6 2.2-1.4 4.5-2.7 6.8-3.8 1-.5 2.2-.6 3.3-.9-.4-.2-.7-.2-1.1-.2M147.1 89l.2-.2c-.1-.3-.3-.5-.4-.8-3.3-4.9-6.5-9.8-9.8-14.7-3.7-5.5-7.9-10.6-13-14.9-1.4-1.2-2.8-2.2-4.5-3.6.1 1.1 0 1.7.1 2.3.5 3.8 2.3 7.1 4.5 10.1 4.8 6.7 10.9 12.3 17.3 17.5 1.8 1.4 3.7 2.8 5.6 4.3zm38.1-27.8c-.1-.1-.2-.1-.4-.2-12.7 6.7-21.6 17.6-31.5 27.7.3 0 .4.1.5.1.3-.1.6-.3 1-.4 7.2-3.4 13.9-7.5 20.3-12.2 3.7-2.8 6.8-6.2 8.7-10.6.5-1.4.9-2.9 1.4-4.4z"/></g><g><path class="st21" d="M220 174.2c0 17-13.8 30.8-30.8 30.8s-30.8-13.8-30.8-30.8 13.8-30.8 30.8-30.8c17-.1 30.8 13.7 30.8 30.8z"/><path class="st22" d="M216.8 174.2c0 15.2-12.4 27.6-27.6 27.6-15.3 0-27.6-12.4-27.6-27.6 0-15.3 12.4-27.6 27.6-27.6 15.2 0 27.6 12.3 27.6 27.6z"/><path class="st23" d="M220 174.2c0-17-13.8-30.8-30.8-30.8V205c17 0 30.8-13.8 30.8-30.8z"/><path class="st21" d="M216.8 174.2c0-15.3-12.4-27.6-27.6-27.6v55.2c15.2 0 27.6-12.4 27.6-27.6z"/><path class="st24" d="M186.7 193.2v-4.6c-2.4-.2-4.4-.4-5.9-.9-1.5-.4-2.7-.8-3.7-1.2v-7.6h8.5c0 .8.2 1.3.5 1.7.3.4.9.6 1.9.6.9 0 1.4-.1 1.8-.4.4-.3.5-.6.5-1.2 0-.4-.1-.7-.4-1-.3-.3-.9-.6-1.8-.9-1.9-.7-3.6-1.4-5-2.1-1.4-.7-2.6-1.4-3.6-2.2-.9-.8-1.6-1.7-2.1-2.8-.5-1.1-.7-2.4-.7-3.9 0-1.3.2-2.4.5-3.5.3-1 .9-2 1.7-2.7.8-.8 1.8-1.4 3.1-1.9s2.8-.8 4.7-1v-4.4h5.1v4.4c1.2.1 2.3.2 3.2.4.9.2 1.8.4 2.5.6.8.2 1.5.5 2.1.7.7.2 1.2.5 1.6.7v6.9h-8.1c0-.7-.2-1.3-.6-1.5-.4-.3-.9-.4-1.5-.4-.9 0-1.5.1-1.8.3-.4.2-.6.6-.6 1.1 0 .4.2.8.6 1 .4.2 1 .4 1.8.7 1.5.5 2.9 1 4.2 1.5 1.3.5 2.5 1.2 3.5 2s1.8 1.8 2.4 2.9c.6 1.1.9 2.5.9 4.2 0 3-.9 5.3-2.6 6.9-1.7 1.6-4.3 2.6-7.6 2.9v4.7h-5.1z"/></g></g></switch></svg>